<?xml version="1.0" encoding="UTF-8" standalone="no"?>
<!DOCTYPE svg PUBLIC "-//W3C//DTD SVG 1.1//EN" "http://www.w3.org/Graphics/SVG/1.1/DTD/svg11.dtd">
<svg width="100%" height="100%" viewBox="0 0 1024 1024" version="1.1" xmlns="http://www.w3.org/2000/svg" xmlns:xlink="http://www.w3.org/1999/xlink" xml:space="preserve" xmlns:serif="http://www.serif.com/" style="fill-rule:evenodd;clip-rule:evenodd;stroke-linejoin:round;stroke-miterlimit:1.41421;">
    <g id="Pigeonhead-logo" serif:id="Pigeonhead logo" transform="matrix(-0.613651,0,0,0.613651,1863.65,-542.621)">
        <g transform="matrix(-0.427996,0,0,0.427996,3019.95,887.665)">
            <path d="M2079.27,144.984L2592.79,186.996L2981.73,426.035L3134.92,782.303L3135.38,1116.22L3264.97,1224.23L3292.61,1482.16L3443.5,1642.35L3487.28,2051.99L3214.43,1914.94L2983.31,1828.7L2831.87,1916.41L2802.51,2087.49L3295.42,3095.87L3442.71,3722.38L3124.71,3737.93L2325.98,3360.25L2415.41,3146.7L2325.98,3360.25L1734.62,3395.59L1425.31,3263.36L698.76,3603.38L331.957,3388.04L526.973,2678.15L776.681,2096.85L986.781,1475.69L1177.34,757.357L1523.93,326.905L2079.27,144.984Z"/>
        </g>
        <g transform="matrix(-0.427996,0,0,0.427996,3019.95,887.665)">
            <path d="M526.973,2678.15L1152.21,2678.65L1425.31,3263.36L698.76,3603.38L331.957,3388.04" style="fill:rgb(176,110,75);"/>
        </g>
        <path d="M2245.02,1722.8L2434.56,1692.83L2526.8,2034.12" style="fill:rgb(91,95,113);"/>
        <path d="M2434.56,1692.83L2526.8,2034.12L2794.4,2033.9L2687.53,1785.11" style="fill:rgb(79,79,79);"/>
        <path d="M2434.56,1692.83L2537.81,1511.21L2687.53,1785.11" style="fill:rgb(117,117,117);"/>
        <path d="M2245.02,1722.8L2537.81,1511.21L2434.56,1692.83" style="fill:rgb(60,60,60);"/>
        <path d="M1820.48,1781.1L1956.35,1647.4L2245.02,1722.8" style="fill:rgb(63,63,63);"/>
        <path d="M2412.65,1343.98L2245.02,1722.8L2537.81,1511.21" style="fill:rgb(82,86,105);"/>
        <path d="M1956.35,1647.4L2302.87,1418.21L2412.65,1343.98L2245.02,1722.8" style="fill:rgb(109,113,129);"/>
        <path d="M1956.35,1647.4L2302.87,1418.21L2221.54,1411.93L2060.99,1387.53" style="fill:rgb(92,96,114);"/>
        <path d="M2060.99,1387.53L1956.35,1647.4L1906.96,1470.42" style="fill:rgb(77,77,77);"/>
        <path d="M2140.36,1297.02L2179.46,1326.49L2210.11,1328.86L2147.05,1357.58" style="fill:rgb(196,101,59);"/>
        <path d="M1678.21,1222.49L1867.83,1387.53L1755.62,1371.54" style="fill:rgb(109,109,109);"/>
        <path d="M1910.24,967.699L1743.78,1070.01L1678.21,1222.49" style="fill:rgb(169,171,180);"/>
        <path d="M1910.24,967.699L1678.21,1222.49L1867.83,1387.53" style="fill:rgb(152,154,166);"/>
        <path d="M1910.24,967.699L2130.03,949.718L2367.71,1027.58" style="fill:rgb(175,177,185);"/>
        <path d="M2110.69,1211.32L2367.71,1027.58L1910.24,967.699L1867.83,1387.53" style="fill:rgb(106,110,127);"/>
        <path d="M2110.69,1211.32L2134.99,1218.53L2060.99,1387.53L1867.83,1387.53" style="fill:rgb(72,72,72);"/>
        <path d="M2134.99,1218.53L2286.51,1199.23L2367.71,1027.58" style="fill:rgb(124,127,142);"/>
        <path d="M2367.71,1027.58L2286.51,1199.23L2301.99,1343.98" style="fill:rgb(112,116,132);"/>
        <path d="M2367.71,1027.58L2412.65,1343.98L2301.99,1343.98" style="fill:rgb(93,98,115);"/>
        <path d="M2367.71,1027.58L2516.05,1211.81L2412.65,1343.98" style="fill:rgb(132,135,149);"/>
        <path d="M2516.05,1211.81L2412.65,1343.98L2537.81,1511.21L2687.53,1785.11L2597.61,1519.26" style="fill:rgb(90,94,112);"/>
        <path d="M2301.99,1343.98L2302.87,1418.21L2412.65,1343.98" style="fill:rgb(89,94,112);"/>
        <path d="M2301.99,1343.98L2221.54,1411.93L2302.87,1418.21" style="fill:rgb(60,60,60);"/>
        <path d="M1678.02,1365.4L1683.94,1418.21L1755.62,1371.54L1678.21,1222.49" style="fill:rgb(71,71,71);"/>
        <path d="M1789.79,1502.55L1867.83,1387.53L1755.62,1371.54L1683.94,1418.21" style="fill:rgb(221,221,221);"/>
        <path d="M1622.55,1411.63L1678.02,1365.4L1683.94,1418.21L1610.72,1522.03" style="fill:rgb(222,222,222);"/>
        <path d="M1683.94,1418.21L1789.79,1502.55L1679.23,1482.67L1610.72,1522.03" style="fill:rgb(233,233,233);"/>
        <path d="M1546.14,1590.58L1610.72,1522.03L1679.23,1482.67L1789.79,1502.55" style="fill:rgb(93,93,93);"/>
        <path d="M1546.14,1590.58L1527.4,1765.91L1605.34,1661.36" style="fill:rgb(75,75,75);"/>
        <path d="M1527.4,1765.91L1644.18,1707.25L1743.1,1670.34L1605.34,1661.36" style="fill:rgb(60,60,60);fill-opacity:0.482353;"/>
        <path d="M1605.34,1661.36L1906.96,1470.42L1789.79,1502.55L1546.14,1590.58" style="fill:rgb(60,60,60);"/>
        <path d="M1605.34,1661.36L1743.1,1670.34L1906.96,1470.42" style="fill:rgb(60,60,60);fill-opacity:0.666667;"/>
        <path d="M1743.1,1670.34L1956.35,1647.4L1906.96,1470.42" style="fill:rgb(107,107,107);"/>
        <path d="M1743.1,1670.34L1807.92,1707.88L1956.35,1647.4" style="fill:rgb(51,49,50);"/>
        <path d="M1807.92,1707.88L1820.48,1781.1L1956.35,1647.4" style="fill:rgb(60,60,60);fill-opacity:0.537255;"/>
        <path d="M1906.96,1470.42L1789.79,1502.55L1867.83,1387.53" style="fill:rgb(191,191,191);"/>
        <path d="M1867.83,1387.53L2060.99,1387.53L1906.96,1470.42" style="fill:rgb(60,60,60);"/>
        <path d="M2221.54,1411.93L2212.08,1371.86L2250.74,1336.37L2301.99,1343.98" style="fill:rgb(74,79,99);"/>
        <path d="M2301.99,1343.98L2250.74,1336.37L2268.01,1280.9L2245.57,1235.64L2286.51,1199.23" style="fill:rgb(76,80,100);"/>
        <path d="M2286.51,1199.23L2245.57,1235.64L2224.52,1225.86L2183.53,1238.42L2134.99,1218.53" style="fill:rgb(63,68,89);"/>
        <path d="M2183.53,1238.42L2140.36,1297.02L2134.99,1218.53" style="fill:rgb(80,85,104);"/>
        <path d="M2060.99,1387.53L2147.05,1357.58L2140.36,1297.02L2134.99,1218.53" style="fill:rgb(72,77,97);"/>
        <path d="M2183.53,1238.42L2176.81,1293.19L2179.46,1326.49L2140.36,1297.02" style="fill:rgb(190,86,39);fill-opacity:0.862745;"/>
        <path d="M2224.52,1225.86L2218.17,1275.15L2200.48,1275.08L2176.81,1293.19L2183.53,1238.42" style="fill:rgb(152,46,38);"/>
        <path d="M2224.52,1225.86L2218.17,1275.15L2224.98,1302.31L2250.74,1336.37L2268.01,1280.9L2245.57,1235.64" style="fill:rgb(161,65,58);"/>
        <path d="M2224.98,1302.31L2210.11,1328.86L2179.46,1326.49L2176.81,1293.19L2200.48,1275.08L2218.17,1275.15" style="fill:rgb(15,16,18);"/>
        <path d="M2147.05,1357.58L2210.11,1328.86L2224.98,1302.31L2250.74,1336.37L2212.08,1371.86" style="fill:rgb(187,78,29);"/>
        <path d="M2221.54,1411.93L2212.08,1371.86L2147.05,1357.58L2060.99,1387.53" style="fill:rgb(63,68,89);"/>
        <path d="M2245.02,1722.8L2526.8,2034.12L2409.92,2284.37" style="fill:rgb(195,145,118);"/>
        <path d="M1820.48,1781.1L2245.02,1722.8L2010.78,1898.8" style="fill:rgb(83,88,107);"/>
        <path d="M2010.78,1898.8L2245.02,1722.8L2409.92,2284.37" style="fill:rgb(198,200,206);fill-opacity:0.658824;"/>
        <path d="M2010.78,1898.8L2409.92,2284.37L2277.54,2340.96L2024.44,2325.84L1986.16,2234.44" style="fill:rgb(224,175,152);fill-opacity:0.588235;"/>
        <path d="M2010.78,1898.8L1986.16,2234.44L1820.48,1781.1" style="fill:rgb(100,104,121);"/>
        <path d="M1820.48,1781.1L1986.16,2234.44L2024.44,2325.84L1682.58,2487.48L1546.48,2480.83L1609.52,2212.69" style="fill:rgb(118,121,136);"/>
        <path d="M2110.69,1211.32L2367.71,1027.58L2134.99,1218.53" style="fill:rgb(60,60,60);"/>
    </g>
</svg>
