<svg version="1" xmlns="http://www.w3.org/2000/svg" width="933.333" height="933.333" viewBox="0 0 700.000000 700.000000"><path d="M117 116.9c.1 1.4 231.9 232.3 232.9 232 1.3-.5 233.1-231.1 233.1-232 0-.3-104.8-.6-233-.6s-233 .3-233 .6zM52.8 180.4L.5 232.8v116.1C.5 412.8.7 465 .9 465S51.1 415.2 112 354.3l110.7-110.7-57.8-57.8C133.1 154 106.7 128 106.1 128c-.5 0-24.5 23.6-53.3 52.4zM535.1 185.4c-31.5 31.5-57.2 57.8-57 58.4.4 1.1 32.8 33.7 162.4 163.1l59.5 59.5V233.2l-52.6-52.6c-28.9-28.9-53.1-52.6-53.8-52.5-.6 0-26.9 25.8-58.5 57.3zM68.6 418.6c-31.7 31.7-57.5 58.1-57.4 58.5.2.5 23.9 24.5 52.7 53.4l52.5 52.6 58.2-58.2c48.5-48.5 58.1-58.5 57.1-59.8-3.2-3.9-104-104.1-104.7-104.1-.4 0-26.7 25.9-58.4 57.6zM519.7 413.3c-29 28.7-52.7 52.6-52.7 53 0 .4 26.1 27 57.9 59l58 58.2 53-53c29.2-29.2 53.1-53.3 53.1-53.6C689 476 574 361 573.1 361c-.3 0-24.3 23.6-53.4 52.3z"/></svg>